<svg xmlns="http://www.w3.org/2000/svg" viewBox="0 0 64 64">
  <defs>
    <linearGradient id="bg" x1="8" y1="6" x2="56" y2="60" gradientUnits="userSpaceOnUse">
      <stop stop-color="#161d38"/>
      <stop offset="1" stop-color="#090d18"/>
    </linearGradient>
    <linearGradient id="gift" x1="15" y1="23" x2="50" y2="53" gradientUnits="userSpaceOnUse">
      <stop stop-color="#8b7cff"/>
      <stop offset="1" stop-color="#6654e8"/>
    </linearGradient>
  </defs>
  <rect x="2" y="2" width="60" height="60" rx="15" fill="url(#bg)" stroke="#3b3f73" stroke-width="2"/>
  <rect x="13" y="28" width="38" height="25" rx="4" fill="url(#gift)"/>
  <path d="M11 23.5a3.5 3.5 0 0 1 3.5-3.5h35a3.5 3.5 0 0 1 3.5 3.5V31H11v-7.5Z" fill="#a99fff"/>
  <path d="M29 20h6v33h-6z" fill="#35d6c1"/>
  <path d="M32 20c-8.8 0-13-2.8-13-7 0-3.2 2.4-5.5 5.7-5.5C29.4 7.5 32 13 32 20Zm0 0c8.8 0 13-2.8 13-7 0-3.2-2.4-5.5-5.7-5.5C34.6 7.5 32 13 32 20Z" fill="none" stroke="#35d6c1" stroke-width="4" stroke-linecap="round" stroke-linejoin="round"/>
  <path d="m50.5 9 1.2 3.3L55 13.5l-3.3 1.2-1.2 3.3-1.2-3.3-3.3-1.2 3.3-1.2L50.5 9Z" fill="#f8fafc"/>
</svg>
